<?xml version="1.0" encoding="UTF-8"?>
<svg width="56px" height="54px" viewBox="0 0 56 54" version="1.1" xmlns="http://www.w3.org/2000/svg" xmlns:xlink="http://www.w3.org/1999/xlink">
    <title>Icon / Check list Copy 3</title>
    <defs>
        <filter color-interpolation-filters="auto" id="filter-1">
            <feColorMatrix in="SourceGraphic" type="matrix" values="0 0 0 0 1.000000 0 0 0 0 0.372549 0 0 0 0 0.000000 0 0 0 1.000000 0"></feColorMatrix>
        </filter>
    </defs>
    <g id="Journey" stroke="none" stroke-width="1" fill="none" fill-rule="evenodd">
        <g id="UoWD-008" transform="translate(-403.000000, -251.000000)">
            <g id="Icon-/-Check-list-Copy-3" transform="translate(403.000000, 250.000000)" filter="url(#filter-1)">
                <g>
                    <path d="M55.8562553,52.7149368 L29.1031886,10.2140033 L33.4562553,3.29824272 C33.7315886,2.86133992 33.5999886,2.28533773 33.1641219,2.01087315 C32.7263886,1.73640857 32.1505219,1.86710599 31.8770553,2.30307523 L28.9333219,6.97924217 L28.9333219,2.80065898 C28.9333219,2.28533773 28.5151886,1.86710599 27.9999886,1.86710599 C27.4847886,1.86710599 27.0666553,2.28533773 27.0666553,2.80065898 L27.0666553,6.97924217 L24.1229219,2.30307523 C23.8494553,1.86803954 23.2735886,1.73734212 22.8358553,2.01087315 C22.3999886,2.28533773 22.2683886,2.86133992 22.5437219,3.29824272 L26.8967886,10.2140033 L17.7725219,24.7083471 C17.4981219,25.1443163 17.6297219,25.7203185 18.0655886,25.9957166 C18.2195886,26.0928062 18.3922553,26.1394838 18.5621219,26.1394838 C18.8719886,26.1394838 19.1753219,25.984514 19.3526553,25.702581 L27.0666553,13.4487644 L27.0666553,28.661944 L12.6849219,50.6620538 L9.48825528,29.8736958 L23.3333219,29.8736958 C23.8485219,29.8736958 24.2666553,29.455464 24.2666553,28.9401428 C24.2666553,28.4248215 23.8485219,28.0065898 23.3333219,28.0065898 L8.39998861,28.0065898 C8.12745528,28.0065898 7.86892195,28.125151 7.69158861,28.3323998 C7.51425528,28.538715 7.43585528,28.8131796 7.47785528,29.0820428 L10.3926553,48.032235 L10.2666553,48.1582647 L9.05985528,46.9511807 C8.69492195,46.5861614 8.10505528,46.5861614 7.74012195,46.9511807 L6.53332195,48.1582647 L5.74838861,47.3731466 L7.81665528,44.1150467 C8.09292195,43.680011 7.96505528,43.1030752 7.52918861,42.82581 C7.09612195,42.5504119 6.51745528,42.6783086 6.24118861,43.1142779 L0.145588613,52.7121362 C-0.0373447201,52.9996705 -0.0485447201,53.3637562 0.115721947,53.6615596 C0.27905528,53.9602965 0.59265528,54.1460736 0.933321947,54.1460736 L12.1333219,54.1460736 C12.2462553,54.1460736 12.3535886,54.1190005 12.4571886,54.0807249 C12.4795886,54.0723229 12.5010553,54.065788 12.5225219,54.0555189 C12.6167886,54.011642 12.7035886,53.9546952 12.7801219,53.8818781 C12.7931886,53.8688083 12.8025219,53.8538715 12.8155886,53.8408018 C12.8501219,53.8025261 12.8855886,53.7670511 12.9145219,53.7231741 L27.9999886,30.6457441 L43.0854553,53.7231741 C43.2581219,53.9873696 43.5521219,54.1460736 43.8666553,54.1460736 L55.0666553,54.1460736 C55.4063886,54.1460736 55.7190553,53.9612301 55.8842553,53.6634267 C56.0475886,53.3665568 56.0373219,53.0024712 55.8562553,52.7149368 L55.8562553,52.7149368 Z M33.9929219,36.4020319 L34.5333219,35.8615047 L35.7401219,37.0685887 C35.9221219,37.2506315 36.1610553,37.3421197 36.3999886,37.3421197 C36.6389219,37.3421197 36.8778553,37.2506315 37.0598553,37.0685887 L38.2666553,35.8615047 L39.4734553,37.0685887 C39.8374553,37.4326744 40.4263886,37.4345415 40.7913219,37.0704558 L42.6439886,35.2304228 L50.2739886,47.3507414 L49.4666553,48.1582647 L48.2598553,46.9511807 C47.8949219,46.5861614 47.3050553,46.5861614 46.9401219,46.9511807 L45.7333219,48.1582647 L44.5265219,46.9511807 C44.1615886,46.5861614 43.5717219,46.5861614 43.2067886,46.9511807 L41.8058553,48.3524437 L33.9929219,36.4020319 L33.9929219,36.4020319 Z M28.9333219,28.661944 L28.9333219,13.4487644 L41.6257219,33.611642 L40.1351886,35.0903899 L38.9265219,33.8814388 C38.5615886,33.5164195 37.9717219,33.5164195 37.6067886,33.8814388 L36.3999886,35.0885228 L35.1931886,33.8814388 C34.8282553,33.5164195 34.2383886,33.5164195 33.8734553,33.8814388 L32.9494553,34.8056562 L28.9333219,28.661944 L28.9333219,28.661944 Z M4.72265528,48.9872597 L5.87345528,50.1383306 C6.23838861,50.5033498 6.82825528,50.5033498 7.19318861,50.1383306 L8.39998861,48.9312466 L9.60678861,50.1383306 C9.78878861,50.3203734 10.0277219,50.4118616 10.2666553,50.4118616 C10.4318553,50.4118616 10.5895886,50.3521142 10.7351886,50.2652938 L11.0450553,52.2789676 L2.63198861,52.2789676 L4.72265528,48.9872597 L4.72265528,48.9872597 Z M44.3715886,52.2789676 L42.8483886,49.9497529 L43.8666553,48.9312466 L45.0734553,50.1383306 C45.4383886,50.5033498 46.0282553,50.5033498 46.3931886,50.1383306 L47.5999886,48.9312466 L48.8067886,50.1383306 C49.1717219,50.5033498 49.7615886,50.5033498 50.1265219,50.1383306 L51.2941219,48.9713893 L53.3754553,52.2789676 L44.3715886,52.2789676 L44.3715886,52.2789676 Z" id="tent-tribal" fill="#FFFFFF"></path>
                </g>
            </g>
        </g>
    </g>
</svg>