<?xml version="1.0" encoding="UTF-8"?>
<svg width="54px" height="54px" viewBox="0 0 54 54" version="1.1" xmlns="http://www.w3.org/2000/svg" xmlns:xlink="http://www.w3.org/1999/xlink">
    <title>Icon / Check list Copy 3</title>
    <defs>
        <filter color-interpolation-filters="auto" id="filter-1">
            <feColorMatrix in="SourceGraphic" type="matrix" values="0 0 0 0 1.000000 0 0 0 0 0.372549 0 0 0 0 0.000000 0 0 0 1.000000 0"></feColorMatrix>
        </filter>
    </defs>
    <g id="Journey" stroke="none" stroke-width="1" fill="none" fill-rule="evenodd">
        <g id="UoWD-008" transform="translate(-734.000000, -251.000000)">
            <g id="Icon-/-Check-list-Copy-3" transform="translate(733.000000, 250.000000)" filter="url(#filter-1)">
                <g>
                    <path d="M43.4763437,37.035433 C44.8404687,38.399879 44.8404687,40.6211517 43.4763437,41.9864729 C43.0257187,42.4363288 42.4814687,42.7382748 41.9065937,42.8914359 L42.2382187,43.2240141 C43.6032187,44.5893354 43.6032187,46.8097328 42.2382187,48.1741789 C41.1610937,49.2515574 39.5493437,49.4799861 38.2482187,48.8550891 C38.1152187,49.530748 37.7862187,50.1521443 37.2883437,50.6501364 C36.2514687,51.6890059 34.5810937,51.9506924 33.2983437,51.3319218 C33.1653437,52.0075808 32.8354687,52.6281018 32.3384687,53.126094 C31.6568437,53.8078794 30.7599687,54.1492097 29.8639687,54.1500849 C28.9670937,54.1500849 28.0710937,53.8078794 27.3894687,53.126094 L12.5065937,38.2528444 C9.84484375,35.590468 9.27784375,32.3005689 8.82284375,29.657447 C8.49209375,27.7346195 8.20596875,26.0743539 7.25659375,25.1247555 C6.91446875,24.7825499 6.91446875,24.2294198 7.25659375,23.8872143 C7.59871875,23.5450088 8.15171875,23.5450088 8.49384375,23.8872143 C9.83609375,25.2297802 10.1817187,27.2357522 10.5474687,29.359877 C10.9823437,31.8848461 11.4749687,34.7458943 13.7438437,37.0153032 L28.6267187,51.8876776 C29.3092187,52.5712134 30.4204687,52.569463 31.1012187,51.8885528 C31.4319687,51.557725 31.6139687,51.1183716 31.6139687,50.6510116 C31.6139687,50.1827765 31.4319687,49.7434231 31.1012187,49.4125952 L23.0582187,41.3677023 C22.7160937,41.0254968 22.7160937,40.4714915 23.0582187,40.1301611 C23.3994687,39.7879556 23.9533437,39.7879556 24.2954687,40.1301611 L32.3375937,48.1741789 L32.3384687,48.1741789 L33.5765937,49.41172 C34.2380937,50.0742509 35.3895937,50.0742509 36.0510937,49.4125952 C36.7335937,48.7299346 36.7335937,47.6192983 36.0510937,46.9366377 L26.1522187,37.035433 C25.8100937,36.6932275 25.8100937,36.1392221 26.1522187,35.7978918 C26.4934687,35.4556863 27.0473437,35.4556863 27.3894687,35.7978918 L38.5255937,46.9375129 C39.2089687,47.6201735 40.3184687,47.6184231 41.0009687,46.9366377 C41.6834687,46.2548522 41.6834687,45.1442159 41.0009687,44.4615553 L29.2453437,32.7031636 C28.9032187,32.3618333 28.9032187,31.8078279 29.2453437,31.4656224 C29.5865937,31.1234169 30.1404687,31.1234169 30.4825937,31.4656224 L39.7628437,40.7489317 C40.4462187,41.4307172 41.5574687,41.4298419 42.2382187,40.7489317 C42.9207187,40.0662711 42.9207187,38.9556348 42.2382187,38.2729742 L32.9579687,28.9905401 C32.6158437,28.6483345 32.6158437,28.0943292 32.9579687,27.7521237 C33.3000937,27.4107933 33.8530937,27.4107933 34.1952187,27.7521237 L43.4763437,37.035433 L43.4763437,37.035433 Z M48.3815937,20.3863905 C46.9597187,21.8086002 46.4714687,24.1252703 45.9998437,26.3657975 C45.5815937,28.3542653 45.1484687,30.4118745 44.0949687,31.4656224 L42.8568437,32.7031636 C42.5155937,33.0453691 42.5155937,33.5993745 42.8568437,33.9407048 C43.0283437,34.1122452 43.2523437,34.1971401 43.4763437,34.1971401 C43.6994687,34.1971401 43.9234687,34.1122452 44.0949687,33.9407048 L45.3322187,32.7031636 C46.7532187,31.2818292 47.2405937,28.9660343 47.7122187,26.7263823 C48.1313437,24.736164 48.5653437,22.6785549 49.6188437,21.6239317 C49.9609687,21.2826014 49.9609687,20.7285961 49.6188437,20.3863905 C49.2767187,20.044185 48.7237187,20.044185 48.3815937,20.3863905 L48.3815937,20.3863905 Z M15.7388437,25.8958119 C15.7388437,26.3640471 15.9217187,26.8034004 16.2524687,27.1333531 L16.8710937,27.7521237 C17.6979687,28.5783181 18.7952187,29.0334251 19.9642187,29.0334251 C21.1332187,29.0334251 22.2313437,28.5783181 23.0582187,27.7521237 L27.4165937,23.3927229 C29.1429687,24.8350623 31.2980937,25.620122 33.5730937,25.620122 L33.5774687,25.620122 C36.1490937,25.6183716 38.5693437,24.6145104 40.3902187,22.7923317 C40.7323437,22.4501261 40.7323437,21.8961208 40.3902187,21.5547905 C40.0480937,21.2125849 39.4950937,21.2125849 39.1529687,21.5547905 C37.6619687,23.0461414 35.6809687,23.8688349 33.5765937,23.8697102 L33.5739687,23.8697102 C31.4713437,23.8697102 29.4947187,23.0505174 28.0080937,21.5635425 C27.6659687,21.2222122 27.1120937,21.2222122 26.7708437,21.5635425 L21.8200937,26.5145825 C20.8295937,27.5061908 19.0997187,27.5061908 18.1083437,26.5145825 L17.4897187,25.8958119 L28.0080937,15.3749614 C28.9889687,14.3938555 29.9208437,14.3938555 31.1012187,14.3938555 C32.3647187,14.3938555 33.9388437,14.3938555 35.4324687,12.899879 L37.9069687,10.4239214 C38.2490937,10.0817159 38.2490937,9.52771056 37.9069687,9.18638025 C37.5657187,8.84417473 37.0118437,8.84417473 36.6697187,9.18638025 L34.1952187,11.6623378 C33.2134687,12.6434437 32.2815937,12.6434437 31.1012187,12.6434437 C29.8377187,12.6434437 28.2644687,12.6434437 26.7708437,14.1374202 L16.2533437,24.6573955 C15.9217187,24.9882233 15.7388437,25.4275767 15.7388437,25.8958119 L15.7388437,25.8958119 Z M18.1083437,14.1374202 L20.5828437,16.6125026 C20.7543437,16.7840429 20.9783437,16.8689379 21.2014687,16.8689379 C21.4254687,16.8689379 21.6494687,16.7840429 21.8200937,16.6125026 C22.1622187,16.2711723 22.1622187,15.7171669 21.8200937,15.3749614 L19.3455937,12.899879 C19.0043437,12.5576735 18.4504687,12.5576735 18.1083437,12.899879 C17.7670937,13.2412093 17.7670937,13.7952147 18.1083437,14.1374202 L18.1083437,14.1374202 Z M18.1188437,9.00871345 L12.8688437,3.75747786 C12.5267187,3.41527234 11.9737187,3.41527234 11.6315937,3.75747786 C11.2894687,4.09968338 11.2894687,4.65281353 11.6315937,4.99501905 L16.2629687,9.62748404 L2.00659375,23.8872143 C1.66446875,24.2294198 1.66446875,24.7825499 2.00659375,25.1247555 C2.17721875,25.2954206 2.40121875,25.3811908 2.62521875,25.3811908 C2.84921875,25.3811908 3.07321875,25.2954206 3.24384375,25.1247555 L18.1188437,10.2462546 C18.4609687,9.90404911 18.4609687,9.35091897 18.1188437,9.00871345 L18.1188437,9.00871345 Z M53.9938437,20.3863905 L39.7374687,6.12666032 L42.6188437,3.24460719 C42.9609687,2.90240167 42.9609687,2.34927152 42.6188437,2.007066 C42.2767187,1.66486048 41.7237187,1.66486048 41.3815937,2.007066 L37.8815937,5.50788972 C37.5394687,5.85009524 37.5394687,6.40322539 37.8815937,6.74543091 L52.7565937,21.6239317 C52.9272187,21.7945969 53.1512187,21.8803671 53.3752187,21.8803671 C53.5992187,21.8803671 53.8232187,21.7945969 53.9938437,21.6239317 C54.3359687,21.2817262 54.3359687,20.7285961 53.9938437,20.3863905 L53.9938437,20.3863905 Z M23.2708438,52.3506616 C22.7834688,52.6062217 21.9513438,52.6368539 21.2014688,51.8885528 C20.4515938,51.1376261 20.4577188,50.2650458 20.7009688,49.8852064 C20.9424688,49.5088679 20.8619688,49.0117509 20.5128438,48.7308098 C20.1654688,48.4498687 19.6623438,48.4761249 19.3455938,48.7938246 C18.6622188,49.4764853 17.5509688,49.4756101 16.8702188,48.7938246 C16.1885938,48.111164 16.1885938,47.0005277 16.8702188,46.3178671 C17.0417188,46.1472019 17.1265938,45.9231492 17.1265938,45.6990965 C17.1265938,45.4750438 17.0417188,45.2518662 16.8702188,45.0803259 C16.5289688,44.7389956 15.9750938,44.7389956 15.6329688,45.0803259 L15.0143438,45.6990965 C14.3327188,46.3817571 13.2214688,46.3817571 12.5398438,45.6990965 C11.8582188,45.0164359 11.8582188,43.9057995 12.5398438,43.2240141 L13.1584688,42.6052435 C13.4699688,42.2945454 13.5014688,41.8009293 13.2337188,41.4525973 C12.9659688,41.1042653 12.4803438,41.0088679 12.1014688,41.2285446 C11.6254688,41.5033592 10.7880938,41.4709766 10.0653438,40.7489317 C9.29709375,39.9805009 9.30059375,39.1289256 9.54821875,38.7700911 C9.82296875,38.3727476 9.72234375,37.8274943 9.32509375,37.5526797 C8.92696875,37.2769898 8.38271875,37.3776385 8.10796875,37.7758572 C7.40009375,38.8015985 7.41934375,40.5773914 8.82809375,41.9864729 C9.38284375,42.5404783 9.98659375,42.8713061 10.5815938,43.0297184 C10.3820938,43.474323 10.2770938,43.9600623 10.2770938,44.4615553 C10.2770938,45.3962752 10.6410938,46.2758572 11.3025938,46.9366377 C12.2003438,47.8354742 13.4699688,48.1426714 14.6223438,47.8582295 C14.6905938,48.6511661 15.0274688,49.4257233 15.6329688,50.0313658 C16.5035938,50.9013205 17.7198438,51.2163947 18.8415938,50.9783387 C18.9500938,51.7030092 19.3009688,52.4618127 19.9642188,53.126094 C20.7735938,53.9347843 21.7185938,54.2586105 22.5813438,54.2586105 C23.1352188,54.2586105 23.6549688,54.124704 24.0828438,53.9006513 C24.5107188,53.6765985 24.6760938,53.1479742 24.4512188,52.7191232 C24.2272188,52.2920228 23.6969688,52.1257336 23.2708438,52.3506616 L23.2708438,52.3506616 Z M9.62521875,11.3778959 C10.5903437,11.3778959 11.3752187,10.5928362 11.3752187,9.62748404 C11.3752187,8.6621319 10.5903437,7.87707218 9.62521875,7.87707218 C8.66009375,7.87707218 7.87521875,8.6621319 7.87521875,9.62748404 C7.87521875,10.5928362 8.66009375,11.3778959 9.62521875,11.3778959 L9.62521875,11.3778959 Z M46.3752188,7.87707218 C47.3394688,7.87707218 48.1252188,7.09201246 48.1252188,6.12666032 C48.1252188,5.16130818 47.3394688,4.37624846 46.3752188,4.37624846 C45.4109688,4.37624846 44.6252188,5.16130818 44.6252188,6.12666032 C44.6252188,7.09201246 45.4109688,7.87707218 46.3752188,7.87707218 L46.3752188,7.87707218 Z" id="handshake" fill="#FFFFFF"></path>
                </g>
            </g>
        </g>
    </g>
</svg>