<?xml version="1.0" encoding="UTF-8"?>
<svg width="56px" height="57px" viewBox="0 0 56 57" version="1.1" xmlns="http://www.w3.org/2000/svg" xmlns:xlink="http://www.w3.org/1999/xlink">
    <title>Icon / Check list 2</title>
    <defs>
        <filter color-interpolation-filters="auto" id="filter-1">
            <feColorMatrix in="SourceGraphic" type="matrix" values="0 0 0 0 1.000000 0 0 0 0 0.372549 0 0 0 0 0.000000 0 0 0 1.000000 0"></feColorMatrix>
        </filter>
    </defs>
    <g id="Page-1" stroke="none" stroke-width="1" fill="none" fill-rule="evenodd">
        <g id="Icon-/-Check-list" filter="url(#filter-1)">
            <g>
                <path d="M30.625,54.2627677 L7.875,54.2627677 C5.462625,54.2627677 3.5,52.2996808 3.5,49.8867381 L3.5,6.12644152 C3.5,3.71349876 5.462625,1.75041186 7.875,1.75041186 L35.875,1.75041186 C36.106875,1.75041186 36.33,1.84230848 36.493625,2.0068472 L45.243625,10.7589065 C45.58575,11.101112 45.58575,11.6542422 45.243625,11.9964477 C44.9015,12.3386532 44.3485,12.3386532 44.006375,11.9964477 L35.51275,3.50082372 L7.875,3.50082372 C6.42775,3.50082372 5.25,4.67885091 5.25,6.12644152 L5.25,49.8867381 C5.25,51.3343287 6.42775,52.5123558 7.875,52.5123558 L30.625,52.5123558 C31.108,52.5123558 31.5,52.9044481 31.5,53.3875618 C31.5,53.8706755 31.108,54.2627677 30.625,54.2627677 Z M36.75,7.00164745 C36.75,6.51853377 36.358,6.12644152 35.875,6.12644152 C35.392,6.12644152 35,6.51853377 35,7.00164745 L35,11.3776771 C35,13.7906199 36.962625,15.7537068 39.375,15.7537068 L47.25,15.7537068 L47.25,32.3826194 C47.25,32.8657331 47.642,33.2578254 48.125,33.2578254 C48.608,33.2578254 49,32.8657331 49,32.3826194 L49,14.8785008 C49,14.3953871 48.608,14.0032949 48.125,14.0032949 L39.375,14.0032949 C37.92775,14.0032949 36.75,12.8252677 36.75,11.3776771 L36.75,7.00164745 Z M32.375,19.2545305 C32.858,19.2545305 33.25,18.8624382 33.25,18.3793245 C33.25,17.8962109 32.858,17.5041186 32.375,17.5041186 L23.625,17.5041186 C23.142,17.5041186 22.75,17.8962109 22.75,18.3793245 C22.75,18.8624382 23.142,19.2545305 23.625,19.2545305 L32.375,19.2545305 Z M28.875,22.7553542 L23.625,22.7553542 C23.142,22.7553542 22.75,23.1474465 22.75,23.6305601 C22.75,24.1136738 23.142,24.5057661 23.625,24.5057661 L28.875,24.5057661 C29.358,24.5057661 29.75,24.1136738 29.75,23.6305601 C29.75,23.1474465 29.358,22.7553542 28.875,22.7553542 Z M32.375,22.7553542 C31.892,22.7553542 31.5,23.1474465 31.5,23.6305601 C31.5,24.1136738 31.892,24.5057661 32.375,24.5057661 L39.375,24.5057661 C39.858,24.5057661 40.25,24.1136738 40.25,23.6305601 C40.25,23.1474465 39.858,22.7553542 39.375,22.7553542 L32.375,22.7553542 Z M22.75,28.8817957 C22.75,29.3649094 23.142,29.7570016 23.625,29.7570016 L25.375,29.7570016 C25.858,29.7570016 26.25,29.3649094 26.25,28.8817957 C26.25,28.398682 25.858,28.0065898 25.375,28.0065898 L23.625,28.0065898 C23.142,28.0065898 22.75,28.398682 22.75,28.8817957 Z M33.25,39.3842669 C33.25,39.8673806 33.642,40.2594728 34.125,40.2594728 L35.875,40.2594728 C36.358,40.2594728 36.75,39.8673806 36.75,39.3842669 C36.75,38.9011532 36.358,38.509061 35.875,38.509061 L34.125,38.509061 C33.642,38.509061 33.25,38.9011532 33.25,39.3842669 Z M37.625,29.7570016 C38.108,29.7570016 38.5,29.3649094 38.5,28.8817957 C38.5,28.398682 38.108,28.0065898 37.625,28.0065898 L28.875,28.0065898 C28.392,28.0065898 28,28.398682 28,28.8817957 C28,29.3649094 28.392,29.7570016 28.875,29.7570016 L37.625,29.7570016 Z M23.625,33.2578254 C23.142,33.2578254 22.75,33.6499176 22.75,34.1330313 C22.75,34.616145 23.142,35.0082372 23.625,35.0082372 L30.625,35.0082372 C31.108,35.0082372 31.5,34.616145 31.5,34.1330313 C31.5,33.6499176 31.108,33.2578254 30.625,33.2578254 L23.625,33.2578254 Z M23.625,38.509061 C23.142,38.509061 22.75,38.9011532 22.75,39.3842669 C22.75,39.8673806 23.142,40.2594728 23.625,40.2594728 L30.625,40.2594728 C31.108,40.2594728 31.5,39.8673806 31.5,39.3842669 C31.5,38.9011532 31.108,38.509061 30.625,38.509061 L23.625,38.509061 Z M39.375,33.2578254 L34.125,33.2578254 C33.642,33.2578254 33.25,33.6499176 33.25,34.1330313 C33.25,34.616145 33.642,35.0082372 34.125,35.0082372 L39.375,35.0082372 C39.858,35.0082372 40.25,34.616145 40.25,34.1330313 C40.25,33.6499176 39.858,33.2578254 39.375,33.2578254 Z M23.625,43.7602965 C23.142,43.7602965 22.75,44.1523888 22.75,44.6355025 C22.75,45.1186161 23.142,45.5107084 23.625,45.5107084 L30.625,45.5107084 C31.108,45.5107084 31.5,45.1186161 31.5,44.6355025 C31.5,44.1523888 31.108,43.7602965 30.625,43.7602965 L23.625,43.7602965 Z M39.993625,54.0063324 C39.83,54.1699959 39.606875,54.2627677 39.375,54.2627677 L34.125,54.2627677 C33.642,54.2627677 33.25,53.8706755 33.25,53.3875618 L33.25,48.1363262 C33.25,47.9043966 33.34275,47.6812191 33.506375,47.5175556 L44.970625,36.0506075 C46.31375,34.7080416 48.363,34.705416 49.707875,36.0506075 L51.457875,37.8010194 C52.85175,39.1960976 52.85175,41.1451812 51.457875,42.5393843 L39.993625,54.0063324 Z M46.46425,42.2829489 L38.86225,49.8867381 L40.25,51.2748147 L47.852,43.6710255 L46.46425,42.2829489 Z M43.83925,39.6573311 L36.23725,47.2611203 L37.625,48.6491969 L45.227,41.0454077 L43.83925,39.6573311 Z M35,48.4986614 L35,52.5123558 L39.01275,52.5123558 L35,48.4986614 Z M48.470625,37.2881487 C47.775875,36.5941104 46.899125,36.5976112 46.207875,37.2881487 L45.0765,38.41979 L49.08925,42.4334843 L50.220625,41.3018431 C50.9285,40.5938015 50.9285,39.7474773 50.220625,39.0385605 L48.470625,37.2881487 Z M18.375,24.5057661 L13.125,24.5057661 C12.642,24.5057661 12.25,24.1136738 12.25,23.6305601 L12.25,18.3793245 C12.25,17.8962109 12.642,17.5041186 13.125,17.5041186 L18.375,17.5041186 C18.858,17.5041186 19.25,17.8962109 19.25,18.3793245 L19.25,23.6305601 C19.25,24.1136738 18.858,24.5057661 18.375,24.5057661 Z M14,22.7553542 L17.5,22.7553542 L17.5,19.2545305 L14,19.2545305 L14,22.7553542 Z M13.125,38.509061 L18.375,38.509061 C18.858,38.509061 19.25,38.9011532 19.25,39.3842669 L19.25,44.6355025 C19.25,45.1186161 18.858,45.5107084 18.375,45.5107084 L13.125,45.5107084 C12.642,45.5107084 12.25,45.1186161 12.25,44.6355025 L12.25,39.3842669 C12.25,38.9011532 12.642,38.509061 13.125,38.509061 Z M14,43.7602965 L17.5,43.7602965 L17.5,40.2594728 L14,40.2594728 L14,43.7602965 Z M14.875,35.0082372 C14.903875,35.0082372 14.931875,35.007362 14.961625,35.0038612 C15.222375,34.9784802 15.45775,34.8366969 15.603,34.6187706 L19.103,29.367535 C19.37075,28.9649403 19.26225,28.4214374 18.860625,28.1536244 C18.45725,27.8849362 17.915625,27.9943369 17.647,28.3960564 L14.739375,32.758958 L13.743625,31.7638488 C13.4015,31.4216433 12.8485,31.4216433 12.506375,31.7638488 C12.16425,32.1060544 12.16425,32.6591845 12.506375,33.00139 L14.256375,34.7518019 C14.420875,34.9163406 14.644,35.0082372 14.875,35.0082372 Z" id="paper-exam" fill="#FFFFFF"></path>
            </g>
        </g>
    </g>
</svg>