<svg xmlns="http://www.w3.org/2000/svg" width="580.999" height="700.421" viewBox="0 0 580.999 700.421"><path d="M41.751,229.021a50.966,50.966,0,0,0,18.722-3.208,40.572,40.572,0,0,0,13.844-8.79,37.211,37.211,0,0,0,8.614-13.1A43.817,43.817,0,0,0,85.875,187.8a32.508,32.508,0,0,0-2.505-13.448,28.681,28.681,0,0,0-6.636-9.361,37.316,37.316,0,0,0-9.4-6.329,103.707,103.707,0,0,0-10.767-4.395q-5.494-1.89-10.767-3.56a61.585,61.585,0,0,1-9.4-3.78,20.917,20.917,0,0,1-6.636-5.1,11.234,11.234,0,0,1-2.505-7.471,16.591,16.591,0,0,1,1.231-6.46,13.172,13.172,0,0,1,3.736-5.054,18.142,18.142,0,0,1,6.153-3.3,27.778,27.778,0,0,1,8.57-1.187,29.371,29.371,0,0,1,9.449,1.362,42.351,42.351,0,0,1,6.988,3.032q2.989,1.67,5.186,3.032a7.708,7.708,0,0,0,3.955,1.362,5.635,5.635,0,0,0,3.032-.791,6.522,6.522,0,0,0,2.241-2.725h0l5.8-11.163a46.83,46.83,0,0,0-16.173-9.844A59.289,59.289,0,0,0,46.673,99.11a47.516,47.516,0,0,0-17.667,3.076,39.916,39.916,0,0,0-13.053,8.174A34.981,34.981,0,0,0,5.1,135.587,37.684,37.684,0,0,0,7.6,150.222a29.2,29.2,0,0,0,6.636,9.888,34.738,34.738,0,0,0,9.4,6.416,92.474,92.474,0,0,0,10.723,4.219Q39.817,172.5,45.091,174a49.549,49.549,0,0,1,9.4,3.648,20.223,20.223,0,0,1,6.636,5.318,12.773,12.773,0,0,1,2.505,8.174q0,8.965-5.538,13.756t-15.646,4.79a31.6,31.6,0,0,1-11.295-1.8,46.208,46.208,0,0,1-8.174-4q-3.472-2.2-6.021-4a8.386,8.386,0,0,0-4.746-1.8,5.688,5.688,0,0,0-3.032.835,8.749,8.749,0,0,0-2.329,2.066h0L0,212.321a49.738,49.738,0,0,0,8.394,6.856A58.976,58.976,0,0,0,18.5,224.451,62.933,62.933,0,0,0,29.8,227.835,60.371,60.371,0,0,0,41.751,229.021Zm89.567,0a36.483,36.483,0,0,0,8.394-.923,35.73,35.73,0,0,0,7.3-2.549,34.993,34.993,0,0,0,6.373-3.955,62.861,62.861,0,0,0,5.8-5.142h0l1.494,7.208a5.334,5.334,0,0,0,5.538,3.955h13.272V137.433H157.775v65.219a36.87,36.87,0,0,1-9.317,6.9,22.928,22.928,0,0,1-10.548,2.505q-7.647,0-11.471-4.527t-3.824-12.789h0V137.433H100.906v57.309a45.945,45.945,0,0,0,1.978,13.844,30.979,30.979,0,0,0,5.845,10.855,26.143,26.143,0,0,0,9.537,7.076A32.019,32.019,0,0,0,131.318,229.021Zm94.489-1.406V97H204.1V227.615Zm54.145,1.406A40.566,40.566,0,0,0,292.7,227a32.865,32.865,0,0,0,10.9-5.977h0l-6.5-10.548a7.333,7.333,0,0,0-1.318-1.45,2.484,2.484,0,0,0-1.582-.483,3.012,3.012,0,0,0-1.582.483q-.791.483-1.8,1.011a18.621,18.621,0,0,1-2.373,1.011,10.215,10.215,0,0,1-3.384.483,7.155,7.155,0,0,1-5.625-2.373,9.579,9.579,0,0,1-2.11-6.592h0V153.694h23.732v-15.47H277.315V109.833H266.064a5.157,5.157,0,0,0-3.208.967,4.348,4.348,0,0,0-1.626,2.725h0l-4.571,24.611-14.5,2.373v8.614a4.163,4.163,0,0,0,4.307,4.571H255.6v50.365q0,11.69,6.329,18.327T279.952,229.021Zm60.122,0a44.944,44.944,0,0,0,8.79-.791,34.745,34.745,0,0,0,7.471-2.373,40.817,40.817,0,0,0,6.812-3.911,74.464,74.464,0,0,0,6.724-5.406h0l1.934,6.417a5.94,5.94,0,0,0,2.637,3.736,10.509,10.509,0,0,0,4.834.923h9.757V170.658a42.389,42.389,0,0,0-2.241-14.064,30.846,30.846,0,0,0-6.548-11.031,29.988,29.988,0,0,0-10.5-7.208,36.261,36.261,0,0,0-14.107-2.593q-21.974,0-37.532,14.239h0l3.955,6.944a8.995,8.995,0,0,0,2.549,2.813,6.282,6.282,0,0,0,3.78,1.143,9.725,9.725,0,0,0,4.834-1.231q2.2-1.231,4.79-2.769a34,34,0,0,1,6.109-2.769,26.908,26.908,0,0,1,8.79-1.231q7.3,0,11.119,4.351t3.824,13.4h0v5.274q-15.382.352-25.754,2.988t-16.613,6.636a25.228,25.228,0,0,0-8.922,8.965,20.98,20.98,0,0,0-2.681,10.064,27.127,27.127,0,0,0,1.934,10.636,20.956,20.956,0,0,0,5.406,7.647,22.739,22.739,0,0,0,8.306,4.615A34.628,34.628,0,0,0,340.073,229.021Zm6.768-14.942a14.667,14.667,0,0,1-8.834-2.461q-3.384-2.461-3.384-8.174a9.533,9.533,0,0,1,1.626-5.362,13.159,13.159,0,0,1,5.493-4.307,42.168,42.168,0,0,1,10.24-3.032,118.885,118.885,0,0,1,15.865-1.626h0v15.206a43.9,43.9,0,0,1-4.7,4.263,28.268,28.268,0,0,1-4.834,3.032,23.308,23.308,0,0,1-5.318,1.846A28.808,28.808,0,0,1,346.841,214.079Zm85.26,13.536V162.4a37.8,37.8,0,0,1,9.317-6.944,22.607,22.607,0,0,1,10.548-2.549q7.647,0,11.47,4.527t3.824,12.789h0v57.4h21.711v-57.4a45.945,45.945,0,0,0-1.978-13.844,30.912,30.912,0,0,0-5.8-10.811,25.877,25.877,0,0,0-9.537-7.032,32.332,32.332,0,0,0-13.1-2.505,38.072,38.072,0,0,0-8.438.879,32.7,32.7,0,0,0-7.251,2.549,40.2,40.2,0,0,0-6.416,3.955,49.459,49.459,0,0,0-5.757,5.1h0l-1.494-7.12a5.334,5.334,0,0,0-5.538-3.955H410.391v90.182Zm99.939,1.406a44.944,44.944,0,0,0,8.79-.791,34.747,34.747,0,0,0,7.471-2.373,40.818,40.818,0,0,0,6.812-3.911,74.455,74.455,0,0,0,6.724-5.406h0l1.934,6.417a5.94,5.94,0,0,0,2.637,3.736,10.509,10.509,0,0,0,4.834.923H581V170.658a42.389,42.389,0,0,0-2.241-14.064,30.847,30.847,0,0,0-6.548-11.031,29.988,29.988,0,0,0-10.5-7.208,36.261,36.261,0,0,0-14.107-2.593q-21.974,0-37.532,14.239h0l3.955,6.944a8.994,8.994,0,0,0,2.549,2.813,6.282,6.282,0,0,0,3.78,1.143,9.725,9.725,0,0,0,4.834-1.231q2.2-1.231,4.79-2.769a34,34,0,0,1,6.109-2.769,26.908,26.908,0,0,1,8.79-1.231q7.3,0,11.119,4.351t3.824,13.4h0v5.274q-15.382.352-25.754,2.988t-16.613,6.636a25.228,25.228,0,0,0-8.921,8.965,20.98,20.98,0,0,0-2.681,10.064,27.128,27.128,0,0,0,1.934,10.636,20.958,20.958,0,0,0,5.406,7.647,22.74,22.74,0,0,0,8.306,4.615A34.628,34.628,0,0,0,532.04,229.021Zm6.768-14.942a14.667,14.667,0,0,1-8.834-2.461q-3.384-2.461-3.384-8.174a9.532,9.532,0,0,1,1.626-5.362,13.159,13.159,0,0,1,5.494-4.307,42.168,42.168,0,0,1,10.24-3.032,118.884,118.884,0,0,1,15.865-1.626h0v15.206a43.9,43.9,0,0,1-4.7,4.263,28.272,28.272,0,0,1-4.834,3.032,23.308,23.308,0,0,1-5.318,1.846A28.807,28.807,0,0,1,538.808,214.079Z" transform="translate(0 471.4)" fill="#ff5151"/><g transform="translate(35.159)"><path d="M22.649,72H415.256a14.65,14.65,0,0,1,14.65,14.65h0a14.649,14.649,0,0,1-14.65,14.649H22.649A14.649,14.649,0,0,1,8,86.649H8A14.65,14.65,0,0,1,22.649,72Z" transform="translate(38.878 349.905)" fill="#ff5151" fill-rule="evenodd"/><path d="M454.648,273.606a11.865,11.865,0,0,0,11.358-8.56L509.091,47.485a17.955,17.955,0,0,0-7.556-20.125,17.73,17.73,0,0,0-21.325,1.693L408.647,92.981a33.383,33.383,0,0,1-25.538,8.25q-3.02-.263-128.208-56.158Q129.645,101.062,126.64,101.327a33.455,33.455,0,0,1-25.514-8.346L29.634,29a17.73,17.73,0,0,0-21.37-1.728A17.956,17.956,0,0,0,.729,47.461L43.861,265.045a11.865,11.865,0,0,0,11.382,8.56Z" transform="translate(0 119.001)" fill="#ff5151"/><path d="M224.613,18.924A58.234,58.234,0,0,0,181.246,0a54.457,54.457,0,0,0-34.067,11.789,69.8,69.8,0,0,0-13.772,14.417,69.758,69.758,0,0,0-13.774-14.417A54.449,54.449,0,0,0,85.567,0,58.238,58.238,0,0,0,42.2,18.924C31.109,30.985,25,47.461,25,65.321c0,18.382,6.833,35.208,21.5,52.955,13.124,15.875,31.986,31.99,53.829,50.65,7.459,6.373,33.073,24.448,33.073,24.448s25.616-18.077,33.078-24.453c21.84-18.657,40.7-34.77,53.826-50.647,14.671-17.745,21.5-34.571,21.5-52.955C241.812,47.461,235.7,30.985,224.613,18.924Z" transform="translate(121.495)" fill="#ff5151"/></g></svg>