<?xml version="1.0" encoding="UTF-8"?>
<svg width="144px" height="48px" viewBox="0 0 144 48" version="1.1" xmlns="http://www.w3.org/2000/svg" xmlns:xlink="http://www.w3.org/1999/xlink">
    <title>Group 2</title>
    <g id="Page-1" stroke="none" stroke-width="1" fill="none" fill-rule="evenodd">
        <g id="Student-Projects" transform="translate(-380.000000, -808.631478)" fill="#FFFFFF">
            <g id="Group-2" transform="translate(380.000000, 808.631478)">
                <path d="M24.002,-4.26325641e-14 C30.861,-4.26325641e-14 37.651,1.3703 43.973,4.0304 C46.688,10.3348 48.058,17.1358 47.998,23.9995 C48.059,30.8638 46.687,37.6653 43.968,43.9687 C42.062,44.8148 40.097,45.5217 38.088,46.0836 C37.68,36.5386 33.764,27.4801 27.089,20.6447 L27.044,20.5997 C26.819,20.3597 26.589,20.1297 26.359,19.9097 L26.309,19.8647 C19.797,13.5138 11.264,9.6494 2.195,8.9452 C2.704,7.2705 3.317,5.6291 4.03,4.0304 C10.352,1.3703 17.142,-4.26325641e-14 24.002,-4.26325641e-14 Z M35.229,19.5291 C36.517,19.2723 37.7,18.6391 38.628,17.7098 C39.25,17.0964 39.743,16.3657 40.079,15.5603 C40.416,14.7548 40.589,13.8905 40.589,13.0175 C40.589,12.1445 40.416,11.2802 40.079,10.4747 C39.743,9.6692 39.25,8.9386 38.628,8.3252 C37.7,7.3959 36.517,6.7627 35.229,6.5059 C33.941,6.2491 32.605,6.3801 31.392,6.8825 C30.178,7.3848 29.14,8.2358 28.411,9.3279 C27.681,10.4199 27.291,11.704 27.291,13.0175 C27.291,14.331 27.681,15.6151 28.411,16.7071 C29.14,17.7992 30.178,18.6502 31.392,19.1525 C32.605,19.6548 33.941,19.7859 35.229,19.5291 Z M14.884,24.4295 L1.765,37.549 C1.002,34.7195 0.488,31.8285 0.23,28.9093 C0.075,27.3044 0,25.6645 0,23.9995 C0,22.5263 0.062,21.0747 0.185,19.6447 C5.437,19.8262 10.532,21.4846 14.884,24.4295 Z M27.3540161,47.7835 L27.3540161,47.8935 C26.261,47.9635 25.151,47.9985 24.024,47.9985 C22.364,47.9985 20.724,47.9235 19.119,47.7735 C15.728,47.4786 12.377,46.8318 9.12,45.8436 L8.85,45.7586 L22.544,32.0642 C25.684,36.7047 27.36,42.1805 27.3540161,47.7835 Z" id="Shape"></path>
                <path d="M72.017,21.5802 C73.038,22.2564 74.246,22.5938 75.469,22.5446 C76.681,22.5894 77.876,22.2551 78.889,21.5883 C79.857,20.8833 80.582,19.8949 80.964,18.76 C81.468,17.3072 81.707,15.7754 81.669,14.238 C81.708,12.719 81.469,11.2057 80.964,9.7726 C80.57,8.6525 79.847,7.6777 78.889,6.9767 C77.88,6.3012 76.683,5.9609 75.469,6.0043 C74.245,5.9574 73.037,6.2977 72.017,6.9767 C71.061,7.6764 70.343,8.6522 69.958,9.7726 C69.463,11.2078 69.23,12.7203 69.27,14.238 C69.23,15.7715 69.464,17.2998 69.958,18.7519 C70.338,19.8837 71.056,20.8712 72.017,21.5802 Z M76.213,19.5031 C75.978,19.6007 75.724,19.6484 75.469,19.6433 C75.207,19.6489 74.946,19.6015 74.702,19.5041 C74.459,19.4066 74.237,19.261 74.051,19.076 C73.6,18.5744 73.296,17.9571 73.176,17.2932 C72.952,16.2742 72.852,15.2322 72.876,14.1893 C72.855,13.2028 72.956,12.2175 73.176,11.2557 C73.304,10.5989 73.606,9.9887 74.051,9.489 C74.235,9.3003 74.456,9.1512 74.7,9.0509 C74.944,8.9506 75.205,8.9011 75.469,8.9055 C75.726,8.9015 75.98,8.9513 76.216,9.0518 C76.452,9.1523 76.664,9.3013 76.839,9.489 C77.28,9.9943 77.589,10.6014 77.738,11.2557 C77.976,12.2149 78.085,13.2014 78.062,14.1893 C78.088,15.2336 77.979,16.2768 77.738,17.2932 C77.597,17.9549 77.287,18.5689 76.839,19.076 C76.662,19.26 76.449,19.4054 76.213,19.5031 Z M61.174,9.1405 L61.174,22.2609 L64.634,22.2609 L64.634,9.1405 L69.083,9.1405 L69.083,6.1096 L57,6.1096 L57,9.1405 L61.174,9.1405 Z M82.746,22.2609 L82.746,6.1096 L88.476,6.1096 C89.577,6.0717 90.672,6.2967 91.669,6.7661 C92.459,7.1593 93.117,7.7729 93.565,8.5327 C93.98,9.2753 94.192,10.1136 94.181,10.9639 C94.186,11.5993 94.068,12.2295 93.833,12.8198 C93.602,13.3949 93.248,13.9123 92.795,14.3352 C92.296,14.7944 91.705,15.1424 91.061,15.3563 C90.278,15.6201 89.456,15.7489 88.63,15.7372 L86.515,15.7372 L86.515,22.269 L82.746,22.2609 Z M86.482,12.7468 L88.403,12.7468 C88.765,12.7534 89.124,12.6728 89.448,12.5118 C89.743,12.3678 89.99,12.1429 90.162,11.8635 C90.338,11.5852 90.428,11.261 90.421,10.9315 C90.431,10.6017 90.341,10.2766 90.162,9.9996 C89.99,9.7387 89.748,9.531 89.465,9.3999 C89.139,9.2543 88.784,9.1824 88.427,9.1892 L86.515,9.1892 L86.482,12.7468 Z M134.434,41.5404 C133.516,41.2867 132.679,40.8011 132.003,40.1303 L133.769,37.1966 L133.899,36.994 L134.158,37.148 C134.194,37.2769 134.243,37.4018 134.304,37.5208 C134.412,37.7084 134.555,37.8735 134.725,38.007 C135.15,38.2871 135.604,38.5208 136.079,38.704 C136.556,38.8954 137.064,38.9997 137.578,39.0119 C137.904,39.0149 138.229,38.9905 138.551,38.939 C138.812,38.901 139.065,38.8158 139.296,38.6877 C139.499,38.5753 139.665,38.4065 139.774,38.2015 C139.895,37.9691 139.953,37.7095 139.944,37.4478 C139.942,37.2864 139.921,37.1259 139.88,36.9697 C139.828,36.7976 139.751,36.6338 139.653,36.4835 C139.524,36.2914 139.362,36.1239 139.175,35.9891 C138.915,35.7877 138.645,35.601 138.364,35.4299 C137.969,35.1835 137.554,34.9694 137.124,34.7897 C136.202,34.365 135.321,33.8578 134.49,33.2743 C133.904,32.8702 133.423,32.331 133.088,31.7021 C132.787,31.0587 132.64,30.3539 132.659,29.6437 C132.657,28.8768 132.908,28.1307 133.372,27.5204 C133.885,26.867 134.55,26.3494 135.309,26.0131 C136.146,25.6349 137.056,25.444 137.975,25.4539 C138.663,25.4444 139.35,25.5234 140.017,25.6889 C140.617,25.8399 141.193,26.0745 141.727,26.3859 C142.259,26.7043 142.742,27.0973 143.162,27.5528 L140.957,29.984 L140.795,30.1623 L140.568,29.9516 C140.568,29.8471 140.54,29.7473 140.513,29.6486 L140.513,29.6484 C140.504,29.6171 140.495,29.5858 140.487,29.5545 C140.414,29.3607 140.298,29.186 140.147,29.044 C139.895,28.8205 139.596,28.6571 139.272,28.5658 C138.913,28.4868 138.546,28.4487 138.178,28.4524 C137.905,28.4506 137.633,28.4806 137.367,28.5415 C137.147,28.591 136.936,28.6759 136.743,28.7927 C136.587,28.889 136.452,29.0158 136.346,29.1655 C136.253,29.2893 136.202,29.4399 136.2,29.595 C136.199,29.737 136.215,29.8786 136.249,30.0165 C136.295,30.1604 136.366,30.2948 136.46,30.4136 C136.596,30.5827 136.757,30.7302 136.938,30.8512 C137.157,30.997 137.44,31.1753 137.797,31.3698 C138.153,31.5643 138.607,31.7912 139.134,32.0425 C139.855,32.3955 140.555,32.7878 141.233,33.2175 C141.739,33.5386 142.197,33.9287 142.594,34.3764 C142.918,34.7631 143.163,35.209 143.316,35.6893 C143.471,36.2155 143.547,36.7616 143.543,37.3101 C143.54,38.1084 143.324,38.8916 142.919,39.5792 C142.454,40.3368 141.778,40.9423 140.974,41.3216 C139.911,41.8099 138.747,42.0404 137.578,41.9942 C136.513,41.9995 135.454,41.8466 134.434,41.5404 Z M107.212,41.7106 L107.212,25.5593 L112.577,25.5593 C113.717,25.518 114.852,25.7196 115.908,26.1508 C116.718,26.4933 117.399,27.0834 117.853,27.8365 C118.294,28.6108 118.515,29.4905 118.493,30.3811 C118.488,30.9822 118.367,31.5766 118.137,32.1316 C117.909,32.7297 117.571,33.2795 117.14,33.7524 C116.708,34.2166 116.187,34.5888 115.608,34.8465 L118.931,41.7187 L115.146,41.7187 L112.059,35.2922 L110.94,35.2922 L110.94,41.7187 L107.212,41.7106 Z M110.94,32.3018 L112.764,32.3018 C113.286,32.3287 113.8,32.1548 114.198,31.8156 C114.38,31.6524 114.522,31.4503 114.615,31.2244 C114.707,30.9985 114.748,30.7545 114.733,30.5108 C114.737,30.185 114.656,29.8638 114.498,29.5788 C114.337,29.2973 114.105,29.0626 113.825,28.8981 C113.501,28.7194 113.134,28.63 112.764,28.6388 L110.94,28.6388 L110.94,32.3018 Z M58.151,38.785 L58.151,41.7106 L67.981,41.7106 L67.981,38.785 L64.739,38.785 L64.739,28.4848 L67.876,28.4848 L67.876,25.5593 L58.305,25.5593 L58.305,28.4848 L61.287,28.4848 L61.287,38.785 L58.151,38.785 Z M73.346,25.5593 L69.431,25.5593 L69.431,41.7106 L72.673,41.7106 L72.673,31.3131 L77.365,41.7106 L80.939,41.7106 L80.939,26.7992 C80.934,26.5904 80.948,26.3816 80.98,26.1752 C81.01,26.0527 81.068,25.9389 81.15,25.8429 L81.15,25.5593 L77.698,25.5593 L77.957,35.2841 L73.346,25.5593 Z M86.004,41.7106 L86.004,28.5902 L81.831,28.5902 L81.831,25.5593 L93.914,25.5593 L93.914,28.5902 L89.481,28.5902 L89.481,41.7106 L86.004,41.7106 Z M94.894,25.5593 L94.894,41.7106 L105.81,41.7187 L105.81,38.8174 L98.517,38.8174 L98.517,34.7654 L104.506,34.7654 L104.506,31.8561 L98.517,31.8561 L98.517,28.4605 L105.81,28.4605 L105.81,25.5593 L94.894,25.5593 Z M123.542,25.5593 L119.628,25.5593 L119.628,41.7106 L122.869,41.7106 L122.869,31.3131 L127.561,41.7106 L131.135,41.7106 L131.135,26.7992 C131.13,26.5904 131.144,26.3816 131.176,26.1752 C131.206,26.0527 131.264,25.9389 131.346,25.8429 L131.346,25.5593 L127.894,25.5593 L128.153,35.2841 L123.542,25.5593 Z" id="Shape"></path>
            </g>
        </g>
    </g>
</svg>