<svg width="34" height="34" viewBox="0 0 34 34" fill="#fff" xmlns="http://www.w3.org/2000/svg">
<circle cx="17" cy="16.7999" r="16.7999" fill="#858585"/>
<path d="M22.25 16.8C22.25 18.1924 21.6968 19.5277 20.7123 20.5123C19.7277 21.4969 18.3923 22.05 17 22.05C15.6076 22.05 14.2722 21.4969 13.2876 20.5123C12.3031 19.5277 11.75 18.1924 11.75 16.8C11.75 16.5008 11.7815 16.2085 11.8357 15.925H9.99995V22.9198C9.99995 23.4063 10.3937 23.8 10.8802 23.8H23.1215C23.3546 23.7995 23.5781 23.7066 23.7428 23.5416C23.9075 23.3765 24 23.1529 24 22.9198V15.925H22.1642C22.2185 16.2085 22.25 16.5008 22.25 16.8V16.8ZM17 20.3C17.4597 20.2999 17.9149 20.2092 18.3396 20.0332C18.7643 19.8571 19.1502 19.5992 19.4752 19.274C19.8002 18.9488 20.058 18.5628 20.2338 18.138C20.4096 17.7133 20.5001 17.258 20.5 16.7983C20.4998 16.3385 20.4092 15.8833 20.2331 15.4586C20.0571 15.0339 19.7991 14.648 19.474 14.323C19.1488 13.998 18.7628 13.7402 18.338 13.5644C17.9132 13.3886 17.4579 13.2981 16.9982 13.2983C16.0697 13.2985 15.1793 13.6675 14.523 14.3243C13.8666 14.981 13.498 15.8715 13.4982 16.8C13.4984 17.7285 13.8675 18.6189 14.5242 19.2752C15.1809 19.9316 16.0715 20.3002 17 20.3V20.3ZM21.2 13.125H23.2982C23.4376 13.125 23.5713 13.0697 23.6701 12.9713C23.7688 12.8729 23.8245 12.7394 23.825 12.6V10.5018C23.825 10.362 23.7695 10.2281 23.6707 10.1293C23.5719 10.0305 23.4379 9.975 23.2982 9.975H21.2C21.0603 9.975 20.9263 10.0305 20.8275 10.1293C20.7287 10.2281 20.6732 10.362 20.6732 10.5018V12.6C20.675 12.8888 20.9112 13.125 21.2 13.125V13.125ZM17 0C12.5443 0 8.27117 1.76999 5.12056 4.92061C1.96995 8.07122 0.199951 12.3444 0.199951 16.8C0.199951 21.2556 1.96995 25.5288 5.12056 28.6794C8.27117 31.83 12.5443 33.6 17 33.6C19.2062 33.6 21.3908 33.1655 23.429 32.3212C25.4673 31.4769 27.3193 30.2394 28.8793 28.6794C30.4394 27.1194 31.6769 25.2674 32.5211 23.2291C33.3654 21.1908 33.8 19.0062 33.8 16.8C33.8 14.5938 33.3654 12.4092 32.5211 10.3709C31.6769 8.33265 30.4394 6.48063 28.8793 4.92061C27.3193 3.36058 25.4673 2.1231 23.429 1.27882C21.3908 0.434545 19.2062 0 17 0V0ZM25.75 23.6058C25.75 24.675 24.875 25.55 23.8057 25.55H10.1942C9.12495 25.55 8.24995 24.675 8.24995 23.6058V9.99425C8.24995 8.925 9.12495 8.05 10.1942 8.05H23.8057C24.875 8.05 25.75 8.925 25.75 9.99425V23.6058V23.6058Z" fill="white"/>
</svg>
